<svg width="14" height="14" viewBox="0 0 14 14" fill="none" xmlns="http://www.w3.org/2000/svg">
<path fill-rule="evenodd" clip-rule="evenodd" d="M1.805 4.48702C1.92952 3.45834 2.35623 2.48968 3.03119 1.70348C3.70614 0.917282 4.59904 0.348841 5.597 0.0700166C4.698 1.48702 4.192 2.96002 4.115 4.48702H1.805ZM1.805 5.73702H4.147C4.297 7.21302 4.84 8.69902 5.757 10.195C4.7235 9.94117 3.79179 9.37865 3.08582 8.58229C2.37985 7.78594 1.9331 6.7935 1.805 5.73702ZM12.195 5.73702C12.0675 6.78804 11.6246 7.77579 10.9247 8.57015C10.2248 9.36451 9.30061 9.92822 8.274 10.187C9.2 8.71602 9.746 7.23102 9.884 5.73702H12.195ZM7.01 9.83802C7.954 8.43102 8.483 7.06502 8.628 5.73702H5.405C5.561 7.04502 6.083 8.41002 7.01 9.83802ZM5.367 4.48702H8.65C8.549 3.07902 8.01 1.66202 6.997 0.230017C5.987 1.64002 5.453 3.05602 5.367 4.48702ZM12.194 4.48702H9.904C9.81 2.97702 9.298 1.50302 8.39 0.0670166C9.39043 0.344181 10.286 0.912262 10.9631 1.69919C11.6402 2.48612 12.0682 3.45642 12.193 4.48702H12.194ZM6.25 11.55V12.446H2C1.80109 12.446 1.61032 12.525 1.46967 12.6657C1.32902 12.8063 1.25 12.9971 1.25 13.196C1.25 13.3949 1.32902 13.5857 1.46967 13.7263C1.61032 13.867 1.80109 13.946 2 13.946H12C12.1989 13.946 12.3897 13.867 12.5303 13.7263C12.671 13.5857 12.75 13.3949 12.75 13.196C12.75 12.9971 12.671 12.8063 12.5303 12.6657C12.3897 12.525 12.1989 12.446 12 12.446H7.75V11.55C7.25162 11.607 6.74838 11.607 6.25 11.55Z" fill="white"/>
</svg>
